<?xml version="1.0" encoding="UTF-8"?>
<!DOCTYPE svg PUBLIC "-//W3C//DTD SVG 1.1//EN" "http://www.w3.org/Graphics/SVG/1.1/DTD/svg11.dtd">
<!-- Creator: CorelDRAW -->
<svg xmlns="http://www.w3.org/2000/svg" xml:space="preserve" width="91mm" height="23mm" style="shape-rendering:geometricPrecision; text-rendering:geometricPrecision; image-rendering:optimizeQuality; fill-rule:evenodd; clip-rule:evenodd"
viewBox="0 0 91 23"
 xmlns:xlink="http://www.w3.org/1999/xlink">
 <defs>
  <style type="text/css">
   <![CDATA[
    .str1 {stroke:white;stroke-width:0.2646}
    .str0 {stroke:black;stroke-width:0.8819}
    .fil0 {fill:none}
    .fil10 {fill:#0078A0}
    .fil12 {fill:#008CAA}
    .fil1 {fill:#3BB3C2}
    .fil9 {fill:#78C8DC}
    .fil11 {fill:#B4DCE6}
    .fil13 {fill:black;fill-rule:nonzero}
    .fil14 {fill:#FFFF8C;fill-rule:nonzero}
    .fil2 {fill:url(#id0)}
    .fil3 {fill:url(#id1)}
    .fil4 {fill:url(#id2)}
    .fil8 {fill:url(#id3)}
    .fil5 {fill:url(#id4)}
    .fil6 {fill:url(#id5)}
    .fil7 {fill:url(#id6)}
   ]]>
  </style>
  <linearGradient id="id0" gradientUnits="userSpaceOnUse" x1="8.8847" y1="2.3984" x2="8.8847" y2="16.8351">
   <stop offset="0" style="stop-color:#FFFFB5"/>
   <stop offset="1" style="stop-color:#FF7F00"/>
  </linearGradient>
  <linearGradient id="id1" gradientUnits="userSpaceOnUse" xlink:href="#id0" x1="19.8793" y1="2.3984" x2="19.8793" y2="16.8351">
  </linearGradient>
  <linearGradient id="id2" gradientUnits="userSpaceOnUse" xlink:href="#id0" x1="30.8738" y1="2.3984" x2="30.8738" y2="16.8351">
  </linearGradient>
  <linearGradient id="id3" gradientUnits="userSpaceOnUse" xlink:href="#id0" x1="41.5251" y1="2.3984" x2="41.5251" y2="16.8351">
  </linearGradient>
  <linearGradient id="id4" gradientUnits="userSpaceOnUse" xlink:href="#id0" x1="53.2348" y1="2.3984" x2="53.2348" y2="16.8351">
  </linearGradient>
  <linearGradient id="id5" gradientUnits="userSpaceOnUse" xlink:href="#id0" x1="68.5965" y1="2.3984" x2="68.5965" y2="16.8351">
  </linearGradient>
  <linearGradient id="id6" gradientUnits="userSpaceOnUse" xlink:href="#id0" x1="82.1085" y1="2.3984" x2="82.1085" y2="16.8351">
  </linearGradient>
 </defs>
 <g id="Capa_x0020_1">
  <metadata id="CorelCorpID_0Corel-Layer"/>
  <g id="_158385096">
   <path id="_158389104" class="fil0 str0" d="M15.1781 1.54l-10.6798 0 -3.1849 16.0771 10.6799 0 0.3623 -1.8118 1.8308 0 2.4603 -12.4725 -1.8308 0 0.3622 -1.7928zm-4.1574 3.4329l-1.7928 9.1732 -1.9451 0 1.8116 -9.1732 1.9263 0z"/>
   <polygon id="_158388536" class="fil0 str0" points="18.9161,1.5591 15.7503,17.6171 21.033,17.6171 24.1988,1.5591 "/>
   <polygon id="_158387808" class="fil0 str0" points="38.6357,1.54 27.9177,1.54 27.5745,3.3328 25.7817,3.3328 23.3216,15.8053 25.1142,15.8053 24.7519,17.6171 31.8654,17.6171 32.2088,15.8053 32.3231,15.8053 31.9608,17.6171 35.47,17.6171 37.2054,8.7489 30.1109,8.7489 29.4243,12.2008 31.2551,12.2008 30.8547,14.1461 28.9285,14.1461 30.7402,4.9729 34.4591,4.9729 34.0968,6.8038 37.6058,6.8038 "/>
   <polygon id="_158387424" class="fil0 str0" points="53.0536,1.54 47.7708,1.54 44.6049,17.6171 48.0759,17.6171 49.4872,10.4082 49.6397,10.4082 48.915,14.0126 54.2168,14.0126 54.9225,10.4082 55.0369,10.4082 53.6066,17.6171 58.8893,17.6171 62.0551,1.54 56.7723,1.54 56.0668,5.1445 52.3479,5.1445 "/>
   <path id="_158386736" class="fil0 str0" d="M74.6994 1.54l-8.8872 0 -0.3434 1.7928 -1.7926 0 -2.4603 12.4725 1.7928 0 -0.3624 1.8118 8.8872 0 0.3624 -1.8118 1.8117 0 2.4602 -12.4725 -1.8118 0 0.3434 -1.7928zm-4.1386 3.4329l-1.8116 9.1732 -1.9263 0 1.8118 -9.1732 1.9261 0z"/>
   <polygon id="_158386056" class="fil0 str0" points="83.0334,5.1445 83.7391,1.54 78.4563,1.54 75.2906,17.6171 78.7423,17.6171 80.1727,10.4082 80.3062,10.4082 79.6007,14.0126 81.3933,14.0126 80.6686,17.6171 85.9704,17.6171 89.1361,1.54 85.6652,1.54 84.254,8.7489 84.1014,8.7489 84.807,5.1445 "/>
   <polygon id="_158385488" class="fil0 str0" points="40.6382,1.54 37.4723,17.598 42.7551,17.598 45.9208,1.54 "/>
  </g>
  <g id="_158380224">
   <path id="_158384320" class="fil1" d="M11.4212 4.6105l-2.7653 0 -1.9645 9.9933 2.7654 0 1.9644 -9.9933m3.1467 -2.6127l-0.3433 1.7736 1.8117 0 -2.2885 11.6524 -1.8309 0 -0.3622 1.8118 -9.8408 0 3.0132 -15.2378 9.8408 0z"/>
   <polygon id="_158383752" class="fil1" points="19.145,1.9978 23.5886,1.9978 20.5944,17.2356 16.1508,17.2356 "/>
   <polygon id="_158383032" class="fil1" points="38.0255,1.9978 37.1673,6.4223 34.4973,6.4223 34.8596,4.6105 30.3017,4.6105 28.3373,14.6038 31.1026,14.6038 31.6556,11.8194 29.8248,11.8194 30.3397,9.2066 36.6142,9.2066 35.0313,17.2356 32.3613,17.2356 32.7237,15.4238 31.7701,15.4238 31.4268,17.2356 25.1524,17.2356 25.5147,15.4238 23.7221,15.4238 26.0296,3.7714 27.8032,3.7714 28.1657,1.9978 "/>
   <polygon id="_158382352" class="fil1" points="51.7567,5.6022 56.3146,5.6022 57.0203,1.9978 61.4639,1.9978 58.4507,17.2356 54.0071,17.2356 55.4374,10.0267 54.4838,10.0267 53.7783,13.6312 49.3347,13.6312 50.0402,10.0267 49.0485,10.0267 47.6374,17.2356 45.0054,17.2356 48.0188,1.9978 52.4622,1.9978 "/>
   <path id="_158381664" class="fil1" d="M70.9613 4.6105l-2.7653 0 -1.9643 9.9933 2.7653 0 1.9643 -9.9933m3.1469 -2.6127l-0.3624 1.7736 1.8308 0 -2.3076 11.6524 -1.8118 0 -0.3624 1.8118 -8.048 0 0.3624 -1.8118 -1.7928 0 2.2886 -11.6524 1.7927 0 0.3623 -1.7736 8.0482 0z"/>
   <polygon id="_158381000" class="fil1" points="82.4232,5.6022 84.2158,5.6022 83.5102,9.2066 84.4828,9.2066 85.9132,1.9978 88.5259,1.9978 85.5317,17.2356 81.0881,17.2356 81.7938,13.6312 80.0012,13.6312 80.7067,10.0267 79.7342,10.0267 78.3038,17.2356 75.6911,17.2356 78.6853,1.9978 83.1479,1.9978 "/>
   <polygon id="_158380616" class="fil1" points="40.7908,1.9978 45.2344,1.9978 42.2401,17.2356 37.7966,17.2356 "/>
  </g>
  <g id="_158187376">
   <path id="_158379512" class="fil2" d="M11.9361 4.191l-3.6044 0 -2.136 10.8133 3.6044 0 2.136 -10.8133m1.7736 0l1.8308 0 -2.136 10.8133 -1.8118 0 -0.3623 1.8308 -9.0016 0 2.8417 -14.4369 9.0015 0 -0.3623 1.7928z"/>
   <polygon id="_158378872" class="fil3" points="19.5073,2.3982 23.1118,2.3982 20.2511,16.8351 16.6467,16.8351 "/>
   <polygon id="_158378488" class="fil4" points="35.3555,4.191 29.9583,4.191 27.8414,15.0043 31.4459,15.0043 32.1515,11.3999 30.3397,11.3999 30.683,9.6263 36.1184,9.6263 34.688,16.8351 32.8762,16.8351 33.2195,15.0043 31.4459,15.0043 31.0836,16.8351 25.6482,16.8351 26.0106,15.0043 24.218,15.0043 26.3538,4.191 28.1466,4.191 28.4899,2.3982 37.5296,2.3982 36.8239,6.0027 34.9931,6.0027 "/>
   <polygon id="_158377600" class="fil5" points="60.9681,2.3982 58.1264,16.8351 54.503,16.8351 55.9333,9.6263 54.1406,9.6263 53.4349,13.2307 49.8305,13.2307 50.5361,9.6263 48.7243,9.6263 47.294,16.8351 45.5013,16.8351 48.362,2.3982 51.9665,2.3982 51.2418,6.0027 56.6389,6.0027 57.3635,2.3982 "/>
   <path id="_158377216" class="fil6" d="M73.2498 4.191l1.8309 0 -2.1359 10.8133 -1.8308 0 -0.3624 1.8308 -7.2089 0 0.3623 -1.8308 -1.7927 0 2.136 -10.8133 1.7927 0 0.3432 -1.7928 7.2281 0 -0.3625 1.7928m-1.7926 0l-3.6044 0 -2.136 10.8133 3.6044 0 2.136 -10.8133z"/>
   <polygon id="_158376832" class="fil7" points="88.03,2.3982 85.1885,16.8351 81.584,16.8351 82.2897,13.2307 80.4969,13.2307 81.2216,9.6263 79.3908,9.6263 77.9796,16.8351 76.1868,16.8351 79.0285,2.3982 82.6329,2.3982 81.9273,6.0027 83.72,6.0027 82.9952,9.6263 84.826,9.6263 86.2374,2.3982 "/>
   <polygon id="_158187480" class="fil8" points="41.1532,2.3982 44.7576,2.3982 41.8969,16.8351 38.2925,16.8351 "/>
  </g>
  <g id="_158182544">
   <path id="_158186712" class="fil0 str1" d="M13.7097 4.191l0.3623 -1.7928 -9.0015 0 -2.8417 14.4369 9.0016 0 0.3623 -1.8308 1.8118 0 2.136 -10.8133 -1.8308 0zm-1.7736 0l-2.136 10.8133 -3.6044 0 2.136 -10.8133 3.6044 0z"/>
   <polygon id="_158186128" class="fil0 str1" points="19.5073,2.3982 16.6467,16.8351 20.2511,16.8351 23.1118,2.3982 "/>
   <polygon id="_158185400" class="fil0 str1" points="35.3555,4.191 29.9583,4.191 27.8414,15.0043 31.4459,15.0043 32.1515,11.3999 30.3397,11.3999 30.683,9.6263 36.1184,9.6263 34.688,16.8351 32.8762,16.8351 33.2195,15.0043 31.4459,15.0043 31.0836,16.8351 25.6482,16.8351 26.0106,15.0043 24.218,15.0043 26.3538,4.191 28.1466,4.191 28.4899,2.3982 37.5296,2.3982 36.8239,6.0027 34.9931,6.0027 "/>
   <polygon id="_158185016" class="fil0 str1" points="60.9681,2.3982 58.1264,16.8351 54.503,16.8351 55.9333,9.6263 54.1406,9.6263 53.4349,13.2307 49.8305,13.2307 50.5361,9.6263 48.7243,9.6263 47.294,16.8351 45.5013,16.8351 48.362,2.3982 51.9665,2.3982 51.2418,6.0027 56.6389,6.0027 57.3635,2.3982 "/>
   <path id="_158184320" class="fil0 str1" d="M71.4572 4.191l-2.136 10.8133 -3.6044 0 2.136 -10.8133 3.6044 0zm1.7926 0l0.3625 -1.7928 -7.2281 0 -0.3432 1.7928 -1.7927 0 -2.136 10.8133 1.7927 0 -0.3623 1.8308 7.2089 0 0.3624 -1.8308 1.8308 0 2.1359 -10.8133 -1.8309 0z"/>
   <polygon id="_158183640" class="fil0 str1" points="88.03,2.3982 85.1885,16.8351 81.584,16.8351 82.2897,13.2307 80.4969,13.2307 81.2216,9.6263 79.3908,9.6263 77.9796,16.8351 76.1868,16.8351 79.0285,2.3982 82.6329,2.3982 81.9273,6.0027 83.72,6.0027 82.9952,9.6263 84.826,9.6263 86.2374,2.3982 "/>
   <polygon id="_158182936" class="fil0 str1" points="41.1532,2.3982 38.2925,16.8351 41.8969,16.8351 44.7576,2.3982 "/>
  </g>
  <g id="_157958224">
   <polygon id="_158300848" class="fil9" points="4.7271,1.9978 1.7139,17.2356 1.2371,17.6933 4.4221,1.54 "/>
   <polygon id="_158157496" class="fil10" points="11.9933,17.6933 1.2371,17.6933 1.7139,17.2356 11.5547,17.2356 "/>
   <polygon id="_158156656" class="fil11" points="14.5679,1.9978 4.7271,1.9978 4.4221,1.54 15.1781,1.54 "/>
   <polygon id="_158156088" class="fil12" points="11.5547,17.2356 11.9169,15.4238 12.3556,15.8625 11.9933,17.6933 "/>
   <polygon id="_158155520" class="fil10" points="11.9169,15.4238 13.7478,15.4238 14.1674,15.8815 12.3556,15.8625 "/>
   <polygon id="_158154952" class="fil12" points="14.2246,3.7714 14.5679,1.9978 15.1781,1.54 14.8159,3.3328 "/>
   <polygon id="_158154384" class="fil11" points="16.0363,3.7714 14.2246,3.7714 14.8159,3.3328 16.6467,3.3328 "/>
   <polygon id="_158153816" class="fil12" points="16.6467,3.3328 14.1674,15.8815 13.7478,15.4238 16.0363,3.7714 "/>
   <polygon id="_158153248" class="fil11" points="9.4568,14.6038 6.6914,14.6038 7.3018,14.1271 9.1326,14.1271 "/>
   <polygon id="_158152544" class="fil12" points="9.0944,5.0682 7.3018,14.1271 6.6914,14.6038 8.6559,4.6105 "/>
   <polygon id="_158151976" class="fil10" points="8.6559,4.6105 11.4212,4.6105 10.9253,5.0682 9.0944,5.0682 "/>
   <polygon id="_158151408" class="fil9" points="11.4212,4.6105 9.4568,14.6038 9.1326,14.1271 10.9253,5.0682 "/>
   <polygon id="_158150840" class="fil9" points="19.1259,1.9787 16.1317,17.2166 15.6168,17.6553 18.7826,1.521 "/>
   <polygon id="_158150272" class="fil10" points="16.1317,17.2166 20.5753,17.2166 20.9948,17.6553 15.6168,17.6553 "/>
   <polygon id="_158149704" class="fil12" points="24.1607,1.521 20.9948,17.6553 20.5753,17.2166 23.5695,1.9787 "/>
   <polygon id="_158149136" class="fil10" points="23.7221,15.4238 25.5147,15.4238 24.9807,15.8815 23.2071,15.8625 "/>
   <polygon id="_158148568" class="fil9" points="25.5147,15.4238 25.1524,17.2356 24.6184,17.6933 24.9807,15.8815 "/>
   <polygon id="_158148000" class="fil9" points="26.0296,3.7714 23.7221,15.4238 23.2071,15.8625 25.6674,3.3328 "/>
   <polygon id="_158147432" class="fil11" points="27.8032,3.7714 26.0296,3.7714 25.6674,3.3328 27.46,3.3328 "/>
   <polygon id="_158064624" class="fil9" points="28.1657,1.9978 27.8032,3.7714 27.46,3.3328 27.8032,1.54 "/>
   <polygon id="_158064240" class="fil10" points="31.8083,17.6933 24.6184,17.6933 25.1524,17.2356 31.4268,17.2356 "/>
   <polygon id="_158063672" class="fil11" points="31.1026,14.6038 28.3373,14.6038 28.9094,14.1271 30.7402,14.1271 "/>
   <polygon id="_158063104" class="fil12" points="30.7021,5.0682 28.9094,14.1271 28.3373,14.6038 30.3017,4.6105 "/>
   <polygon id="_158062536" class="fil9" points="30.3397,9.2066 29.8248,11.8194 29.2908,12.2771 29.9965,8.7489 "/>
   <polygon id="_158061968" class="fil12" points="31.4268,17.2356 31.7701,15.4238 32.1706,15.8815 31.8083,17.6933 "/>
   <polygon id="_158061400" class="fil10" points="29.8248,11.8194 31.6556,11.8194 31.1217,12.2771 29.2908,12.2771 "/>
   <polygon id="_158060832" class="fil9" points="32.7237,15.4238 32.3613,17.2356 31.8273,17.6933 32.1896,15.8815 "/>
   <polygon id="_158060264" class="fil9" points="31.6556,11.8194 31.1026,14.6038 30.7402,14.1271 31.1217,12.2771 "/>
   <polygon id="_158059696" class="fil11" points="38.0255,1.9978 28.1657,1.9978 27.8032,1.54 38.5975,1.54 "/>
   <polygon id="_158058992" class="fil10" points="31.7701,15.4238 32.7237,15.4238 32.1896,15.8815 32.1706,15.8815 "/>
   <polygon id="_158058424" class="fil10" points="35.4127,17.6933 31.8273,17.6933 32.3613,17.2356 35.0313,17.2356 "/>
   <polygon id="_158057856" class="fil10" points="30.3017,4.6105 34.8596,4.6105 34.3256,5.0682 30.7021,5.0682 "/>
   <polygon id="_158057288" class="fil11" points="36.6142,9.2066 30.3397,9.2066 29.9965,8.7489 37.1863,8.7489 "/>
   <polygon id="_158056720" class="fil9" points="34.8596,4.6105 34.4973,6.4223 33.9633,6.88 34.3256,5.0682 "/>
   <polygon id="_158056152" class="fil10" points="37.5486,6.88 33.9633,6.88 34.4973,6.4223 37.1673,6.4223 "/>
   <polygon id="_158055584" class="fil12" points="37.1863,8.7489 35.4127,17.6933 35.0313,17.2356 36.6142,9.2066 "/>
   <polygon id="_158055016" class="fil12" points="38.5975,1.54 37.5486,6.88 37.1673,6.4223 38.0255,1.9978 "/>
   <polygon id="_158054448" class="fil11" points="61.4639,1.9978 57.0203,1.9978 56.6198,1.54 61.9979,1.54 "/>
   <polygon id="_158053880" class="fil12" points="61.9979,1.54 58.8131,17.6933 58.4507,17.2356 61.4639,1.9978 "/>
   <polygon id="_158053176" class="fil10" points="58.8131,17.6933 53.4349,17.6933 54.0071,17.2356 58.4507,17.2356 "/>
   <polygon id="_158052608" class="fil9" points="57.0203,1.9978 56.3146,5.6022 55.9142,5.1445 56.6198,1.54 "/>
   <polygon id="_158052040" class="fil9" points="55.4374,10.0267 54.0071,17.2356 53.4349,17.6933 54.8653,10.4845 "/>
   <polygon id="_158051472" class="fil10" points="54.4838,10.0267 55.4374,10.0267 54.8653,10.4845 54.8462,10.4845 "/>
   <polygon id="_158050904" class="fil12" points="54.8462,10.4845 54.1406,14.0889 53.7783,13.6312 54.4838,10.0267 "/>
   <polygon id="_158050336" class="fil12" points="53.0154,1.54 52.2907,5.1445 51.7567,5.6022 52.4622,1.9978 "/>
   <polygon id="_158049768" class="fil11" points="52.4622,1.9978 48.0188,1.9978 47.6374,1.54 53.0154,1.54 "/>
   <polygon id="_158049200" class="fil11" points="56.3146,5.6022 51.7567,5.6022 52.2907,5.1445 55.9142,5.1445 "/>
   <polygon id="_158048632" class="fil10" points="45.0054,17.2356 47.6374,17.2356 47.9996,17.6933 44.4524,17.6933 "/>
   <polygon id="_158048064" class="fil10" points="49.3347,13.6312 53.7783,13.6312 54.1406,14.0889 48.7625,14.0889 "/>
   <polygon id="_158047360" class="fil12" points="47.6374,17.2356 49.0485,10.0267 49.43,10.4845 47.9996,17.6933 "/>
   <polygon id="_158046792" class="fil9" points="50.0402,10.0267 49.3347,13.6312 48.7625,14.0889 49.4682,10.4845 "/>
   <polygon id="_158046224" class="fil10" points="49.43,10.4845 49.0485,10.0267 50.0402,10.0267 49.4682,10.4845 "/>
   <polygon id="_158045656" class="fil9" points="48.0188,1.9978 45.0054,17.2356 44.4524,17.6933 47.6374,1.54 "/>
   <polygon id="_158045088" class="fil10" points="68.196,4.6105 70.9613,4.6105 70.3701,5.0682 68.5393,5.0682 "/>
   <polygon id="_158044520" class="fil9" points="70.9613,4.6105 68.997,14.6038 68.5775,14.1271 70.3701,5.0682 "/>
   <polygon id="_158043952" class="fil11" points="68.997,14.6038 66.2317,14.6038 66.7466,14.1271 68.5775,14.1271 "/>
   <polygon id="_158043384" class="fil12" points="68.5393,5.0682 66.7466,14.1271 66.2317,14.6038 68.196,4.6105 "/>
   <polygon id="_158042816" class="fil11" points="75.5766,3.7714 73.7458,3.7714 74.2607,3.3328 76.0915,3.3328 "/>
   <polygon id="_158042248" class="fil12" points="73.7458,3.7714 74.1082,1.9978 74.623,1.54 74.2607,3.3328 "/>
   <polygon id="_158041544" class="fil12" points="76.0915,3.3328 73.6123,15.8815 73.269,15.4238 75.5766,3.7714 "/>
   <polygon id="_158040976" class="fil10" points="73.6123,15.8815 71.8005,15.8815 71.4572,15.4238 73.269,15.4238 "/>
   <polygon id="_158040424" class="fil12" points="71.0948,17.2356 71.4572,15.4238 71.8005,15.8815 71.4382,17.6933 "/>
   <polygon id="_157974304" class="fil11" points="74.1082,1.9978 66.06,1.9978 65.6405,1.54 74.623,1.54 "/>
   <polygon id="_157973736" class="fil10" points="71.4382,17.6933 62.4556,17.6933 63.0468,17.2356 71.0948,17.2356 "/>
   <polygon id="_157973168" class="fil9" points="65.6405,1.54 66.06,1.9978 65.6977,3.7714 65.2973,3.3328 "/>
   <polygon id="_157972600" class="fil11" points="63.5045,3.3328 65.2973,3.3328 65.6977,3.7714 63.905,3.7714 "/>
   <polygon id="_157972032" class="fil9" points="63.4092,15.4238 63.0468,17.2356 62.4556,17.6933 62.818,15.8815 "/>
   <polygon id="_157971464" class="fil10" points="61.6164,15.4238 63.4092,15.4238 62.818,15.8815 61.0444,15.8625 "/>
   <polygon id="_157970896" class="fil9" points="63.905,3.7714 61.6164,15.4238 61.0444,15.8625 63.5045,3.3328 "/>
   <polygon id="_157970192" class="fil11" points="88.5259,1.9978 85.9132,1.9978 85.4745,1.54 89.0218,1.54 "/>
   <polygon id="_157969624" class="fil12" points="89.0218,1.54 85.8369,17.6933 85.5317,17.2356 88.5259,1.9978 "/>
   <polygon id="_157969056" class="fil9" points="85.9132,1.9978 84.4828,9.2066 84.0441,8.7489 85.4745,1.54 "/>
   <polygon id="_157968488" class="fil12" points="83.5102,9.2066 84.2158,5.6022 84.7117,5.1445 84.0061,8.7489 "/>
   <polygon id="_157967920" class="fil11" points="84.4828,9.2066 83.5102,9.2066 84.0061,8.7489 84.0441,8.7489 "/>
   <polygon id="_157967352" class="fil10" points="81.0881,17.2356 85.5317,17.2356 85.8369,17.6933 80.4779,17.6933 "/>
   <polygon id="_157966784" class="fil11" points="84.2158,5.6022 82.4232,5.6022 82.9381,5.1445 84.7117,5.1445 "/>
   <polygon id="_157966216" class="fil12" points="83.6436,1.54 82.9381,5.1445 82.4232,5.6022 83.1479,1.9978 "/>
   <polygon id="_157965648" class="fil11" points="83.1479,1.9978 78.6853,1.9978 78.2656,1.54 83.6436,1.54 "/>
   <polygon id="_157965080" class="fil9" points="81.1836,14.0889 81.7938,13.6312 81.0881,17.2356 80.4779,17.6933 "/>
   <polygon id="_157964376" class="fil10" points="80.0012,13.6312 81.7938,13.6312 81.1836,14.0889 79.3908,14.0889 "/>
   <polygon id="_157963808" class="fil10" points="79.7342,10.0267 80.7067,10.0267 80.1155,10.4845 80.0584,10.4845 "/>
   <polygon id="_157963240" class="fil9" points="80.7067,10.0267 80.0012,13.6312 79.3908,14.0889 80.1155,10.4845 "/>
   <polygon id="_157962672" class="fil12" points="80.0584,10.4845 78.6471,17.6933 78.3038,17.2356 79.7342,10.0267 "/>
   <polygon id="_157962096" class="fil10" points="75.6911,17.2356 78.3038,17.2356 78.6471,17.6933 75.0807,17.6933 "/>
   <polygon id="_157961528" class="fil9" points="78.6853,1.9978 75.6911,17.2356 75.0807,17.6933 78.2656,1.54 "/>
   <polygon id="_157960960" class="fil11" points="23.6076,1.9978 19.164,1.9978 18.8208,1.54 24.1988,1.54 "/>
   <polygon id="_157960392" class="fil9" points="40.8098,1.9978 37.8156,17.2356 37.3008,17.6743 40.4665,1.54 "/>
   <polygon id="_157959824" class="fil12" points="45.8446,1.54 42.6598,17.6743 42.2592,17.2356 45.2534,1.9978 "/>
   <polygon id="_157959256" class="fil11" points="45.2534,1.9978 40.8098,1.9978 40.4665,1.54 45.8446,1.54 "/>
   <polygon id="_157958496" class="fil10" points="42.6979,17.6553 37.3388,17.6553 37.8728,17.2166 42.3164,17.2166 "/>
  </g>
  <path class="fil13" d="M46.5633 20.3358c0,-0.0644 -0.0032,-0.1218 -0.0096,-0.1721 -0.0065,-0.0503 -0.0187,-0.1039 -0.0368,-0.1606l2.0038 0c0.3301,0 0.4951,0.1677 0.4951,0.5029l0 1.47c0,0.3353 -0.165,0.5029 -0.4951,0.5029l-2.0038 0c0.0181,-0.0567 0.0303,-0.109 0.0368,-0.1567 0.0064,-0.0477 0.0096,-0.1063 0.0096,-0.176l0 -1.8104zm0.7272 1.8259l0.8588 0c0.0517,0 0.0878,-0.0103 0.1084,-0.0309 0.0206,-0.0207 0.0309,-0.0594 0.0309,-0.1161l0 -1.5474c0,-0.0592 -0.0096,-0.0986 -0.0289,-0.118 -0.0195,-0.0193 -0.0562,-0.0289 -0.1104,-0.0289l-0.8588 0 0 1.8413zm2.9479 -2.1586c-0.0181,0.0567 -0.0304,0.109 -0.0369,0.1567 -0.0063,0.0477 -0.0096,0.1064 -0.0096,0.176l0 1.8104c0,0.0645 0.0033,0.1218 0.0096,0.1722 0.0065,0.0503 0.0188,0.1038 0.0369,0.1605l-0.8201 0c0.0179,-0.0567 0.0302,-0.109 0.0367,-0.1567 0.0065,-0.0477 0.0096,-0.1063 0.0096,-0.176l0 -1.8104c0,-0.0644 -0.0031,-0.1218 -0.0096,-0.1721 -0.0065,-0.0503 -0.0188,-0.1039 -0.0367,-0.1606l0.8201 0zm0.9013 2.4758c-0.3301,0 -0.4952,-0.1676 -0.4952,-0.5029l0 -1.47c0,-0.3352 0.1651,-0.5029 0.4952,-0.5029l1.8181 0 0.062 0.3366c-0.0491,-0.0071 -0.109,-0.0117 -0.18,-0.0148 -0.0708,-0.0032 -0.1386,-0.0045 -0.2031,-0.0045l-1.1256 0c-0.0516,0 -0.0877,0.0103 -0.1083,0.0309 -0.0206,0.0206 -0.031,0.0593 -0.031,0.116l0 1.5474c0,0.0594 0.0097,0.0986 0.029,0.118 0.0193,0.0193 0.0562,0.029 0.1103,0.029l0.7698 0c0.0748,0 0.1122,-0.0348 0.1122,-0.1044l0 -0.7389 -0.6383 0c-0.0361,0 -0.0652,0.0032 -0.0871,0.0097 -0.0219,0.0065 -0.0535,0.0174 -0.0947,0.0329l0 -0.3598 1.5706 0c-0.0181,0.0567 -0.0304,0.1089 -0.0368,0.1567 -0.0065,0.0477 -0.0097,0.1064 -0.0097,0.176l0 0.8123c0,0.0645 0.0032,0.1218 0.0097,0.1722 0.0064,0.0503 0.0187,0.1038 0.0368,0.1605l-0.6538 0 -0.0387 -0.2167c-0.0181,0.0826 -0.049,0.1393 -0.0929,0.1703 -0.0437,0.031 -0.1198,0.0464 -0.2282,0.0464l-0.9903 0zm3.1799 -2.4758c-0.0181,0.0567 -0.0304,0.109 -0.0368,0.1567 -0.0064,0.0477 -0.0097,0.1064 -0.0097,0.176l0 1.8104c0,0.0645 0.0033,0.1218 0.0097,0.1722 0.0064,0.0503 0.0187,0.1038 0.0368,0.1605l-0.8201 0c0.018,-0.0567 0.0303,-0.109 0.0367,-0.1567 0.0065,-0.0477 0.0097,-0.1063 0.0097,-0.176l0 -1.8104c0,-0.0644 -0.0032,-0.1218 -0.0097,-0.1721 -0.0064,-0.0503 -0.0187,-0.1039 -0.0367,-0.1606l0.8201 0zm2.4449 0l0.0618 0.3366c-0.049,-0.0071 -0.1089,-0.0117 -0.1798,-0.0148 -0.071,-0.0032 -0.1386,-0.0045 -0.2031,-0.0045l-0.3792 0 0 1.8258c0,0.0645 0.0033,0.1218 0.0098,0.1722 0.0063,0.0503 0.0186,0.1038 0.0367,0.1605l-0.8201 0c0.018,-0.0567 0.0303,-0.109 0.0367,-0.1567 0.0065,-0.0477 0.0097,-0.1063 0.0097,-0.176l0 -1.8258 -0.3791 0c-0.0774,0 -0.1464,0.0031 -0.2069,0.0096 -0.0607,0.0065 -0.1193,0.0226 -0.1761,0.0484l0.0619 -0.3753 2.1277 0zm0.735 1.7717l-0.158 0.3714c-0.0207,0.049 -0.0374,0.1019 -0.0491,0.1586 -0.0116,0.0568 -0.0173,0.1148 -0.0173,0.1741l-0.4759 0c0.0439,-0.0618 0.0871,-0.1303 0.1296,-0.205 0.0426,-0.0748 0.0871,-0.1651 0.1335,-0.2708l0.824 -1.8375 -0.1045 -0.1625 0.8085 0 0.913 2.0077c0.0567,0.1238 0.105,0.2244 0.1451,0.3018 0.0399,0.0774 0.0792,0.1328 0.118,0.1663l-0.913 0c0.0051,-0.0206 0.0078,-0.04 0.0078,-0.058 0,-0.0387 -0.0078,-0.0857 -0.0233,-0.1412 -0.0155,-0.0554 -0.0425,-0.1257 -0.0812,-0.2108l-0.1315 -0.2941 -1.1257 0zm0.9825 -0.3171l-0.4217 -0.9362 -0.4158 0.9362 0.8375 0zm2.1625 -1.4546c-0.0181,0.0567 -0.0304,0.109 -0.0368,0.1567 -0.0064,0.0477 -0.0097,0.1064 -0.0097,0.176l0 1.8259 0.9362 0c0.0773,0 0.1463,-0.0032 0.2069,-0.0097 0.0607,-0.0064 0.1193,-0.0226 0.176,-0.0483l-0.0618 0.3752 -2.0309 0c0.0179,-0.0567 0.0302,-0.109 0.0367,-0.1567 0.0065,-0.0477 0.0096,-0.1063 0.0096,-0.176l0 -1.8104c0,-0.0644 -0.0031,-0.1218 -0.0096,-0.1721 -0.0065,-0.0503 -0.0188,-0.1039 -0.0367,-0.1606l0.8201 0zm4.6065 1.7963l0.7201 -1.7963 0.9247 0c-0.0181,0.0567 -0.0304,0.109 -0.0368,0.1567 -0.0065,0.0477 -0.0097,0.1064 -0.0097,0.176l0 1.8091c0,0.0651 0.0032,0.1225 0.0097,0.1728 0.0064,0.0504 0.0187,0.1045 0.0368,0.1612l-0.797 0c0.0181,-0.0567 0.0304,-0.1096 0.0368,-0.1573 0.0064,-0.0477 0.0097,-0.1064 0.0097,-0.1767l0 -1.7858 -0.855 2.1198 -0.5029 0 -0.8317 -2.1392 -0.0077 1.8033c0,0.0652 0.0032,0.1232 0.0097,0.1741 0.0064,0.0503 0.0187,0.1045 0.0367,0.1618l-0.4255 0c0.018,-0.0567 0.0303,-0.1096 0.0368,-0.1573 0.0065,-0.0477 0.0096,-0.1064 0.0096,-0.1767l0 -1.8091c0,-0.0644 -0.0031,-0.1218 -0.0096,-0.1721 -0.0065,-0.0503 -0.0188,-0.1039 -0.0368,-0.1606l0.9742 0 0.7079 1.7963zm2.4725 0.6795c-0.3301,0 -0.4952,-0.1676 -0.4952,-0.5029l0 -1.47c0,-0.3352 0.1651,-0.5029 0.4952,-0.5029l1.4623 0c0.33,0 0.4951,0.1677 0.4951,0.5029l0 1.47c0,0.3353 -0.1651,0.5029 -0.4951,0.5029l-1.4623 0zm1.0909 -0.3172c0.0516,0 0.0877,-0.0103 0.1083,-0.0309 0.0206,-0.0207 0.0309,-0.0594 0.0309,-0.1161l0 -1.5474c0,-0.0592 -0.0096,-0.0986 -0.0289,-0.118 -0.0194,-0.0193 -0.0562,-0.0289 -0.1103,-0.0289l-0.7195 0c-0.0516,0 -0.0877,0.0103 -0.1083,0.0309 -0.0206,0.0206 -0.031,0.0593 -0.031,0.116l0 1.5474c0,0.0594 0.0097,0.0986 0.029,0.118 0.0193,0.0193 0.0562,0.029 0.1103,0.029l0.7195 0zm2.8549 0.3172l-1.2689 -2.0038 -0.0077 1.6711c0,0.0645 0.0032,0.1218 0.0097,0.1722 0.0065,0.0503 0.0187,0.1038 0.0367,0.1605l-0.4254 0c0.0179,-0.0567 0.0302,-0.109 0.0367,-0.1567 0.0065,-0.0477 0.0096,-0.1063 0.0096,-0.176l0 -1.8104c0,-0.0644 -0.0031,-0.1218 -0.0096,-0.1721 -0.0065,-0.0503 -0.0188,-0.1039 -0.0367,-0.1606l0.909 0 1.2457 1.9652 0.0077 -1.6325c0,-0.0644 -0.0032,-0.1218 -0.0097,-0.1721 -0.0065,-0.0503 -0.0187,-0.1039 -0.0367,-0.1606l0.4254 0c-0.018,0.0567 -0.0302,0.109 -0.0367,0.1567 -0.0065,0.0477 -0.0097,0.1064 -0.0097,0.176l0 2.1431 -0.8394 0zm3.4699 -0.5029c0,0.3353 -0.165,0.5029 -0.4952,0.5029l-1.6866 0 -0.0618 -0.3907c0.049,0.0264 0.1089,0.0451 0.1798,0.056 0.071,0.0117 0.1386,0.0175 0.2031,0.0175l1.0174 0c0.0516,0 0.0877,-0.0103 0.1083,-0.0309 0.0206,-0.0207 0.031,-0.0594 0.031,-0.1161l0 -0.325c0,-0.0593 -0.0097,-0.0985 -0.029,-0.118 -0.0194,-0.0193 -0.0561,-0.0289 -0.1103,-0.0289l-0.9245 0c-0.3301,0 -0.4952,-0.1677 -0.4952,-0.5029l0 -0.5339c0,-0.3352 0.1651,-0.5029 0.4952,-0.5029l1.6904 0 0.062 0.3366c-0.049,-0.0071 -0.109,-0.0117 -0.18,-0.0148 -0.0708,-0.0032 -0.1386,-0.0045 -0.203,-0.0045l-1.0213 0c-0.0515,0 -0.0877,0.0103 -0.1083,0.0309 -0.0206,0.0206 -0.0309,0.0593 -0.0309,0.116l0 0.2399c0,0.0594 0.0096,0.0986 0.029,0.118 0.0193,0.0193 0.0561,0.029 0.1102,0.029l0.9245 0c0.3302,0 0.4952,0.1676 0.4952,0.5028l0 0.619zm2.3675 -1.9729l0.0618 0.3366c-0.049,-0.0071 -0.1089,-0.0117 -0.1798,-0.0148 -0.071,-0.0032 -0.1386,-0.0045 -0.2031,-0.0045l-0.3792 0 0 1.8258c0,0.0645 0.0033,0.1218 0.0098,0.1722 0.0063,0.0503 0.0186,0.1038 0.0367,0.1605l-0.8201 0c0.018,-0.0567 0.0303,-0.109 0.0368,-0.1567 0.0064,-0.0477 0.0096,-0.1063 0.0096,-0.176l0 -1.8258 -0.3791 0c-0.0774,0 -0.1464,0.0031 -0.2069,0.0096 -0.0606,0.0065 -0.1193,0.0226 -0.1761,0.0484l0.062 -0.3753 2.1276 0zm0.1934 2.4758c0.018,-0.0567 0.0303,-0.109 0.0367,-0.1567 0.0065,-0.0477 0.0097,-0.1063 0.0097,-0.176l0 -1.8104c0,-0.0644 -0.0032,-0.1218 -0.0097,-0.1721 -0.0064,-0.0503 -0.0187,-0.1039 -0.0367,-0.1606l2.0309 0 0.0619 0.3366c-0.049,-0.0071 -0.1089,-0.0117 -0.1799,-0.0148 -0.0709,-0.0032 -0.1386,-0.0045 -0.203,-0.0045l-0.9363 0 0 0.7504 0.8163 0c0.0774,0 0.1464,-0.0032 0.2069,-0.0096 0.0606,-0.0065 0.1193,-0.0226 0.1761,-0.0484l0 0.4333c-0.049,-0.0206 -0.109,-0.0355 -0.1799,-0.0445 -0.071,-0.009 -0.1386,-0.0135 -0.2031,-0.0135l-0.8163 0 0 0.7736 0.9363 0c0.0773,0 0.1462,-0.0032 0.2069,-0.0097 0.0606,-0.0064 0.1193,-0.0226 0.176,-0.0483l-0.0619 0.3752 -2.0309 0zm3.1063 -0.3327c0,0.0645 0.0033,0.1218 0.0097,0.1722 0.0064,0.0503 0.0187,0.1038 0.0368,0.1605l-0.8201 0c0.018,-0.0567 0.0303,-0.109 0.0367,-0.1567 0.0065,-0.0477 0.0097,-0.1063 0.0097,-0.176l0 -1.8104c0,-0.0644 -0.0032,-0.1218 -0.0097,-0.1721 -0.0064,-0.0503 -0.0187,-0.1039 -0.0367,-0.1606l1.9613 0c0.1572,0 0.2785,0.0401 0.3636,0.12 0.0851,0.0799 0.1276,0.1998 0.1276,0.3598l0 0.5029c0,0.1186 -0.0284,0.212 -0.0851,0.2803 -0.0568,0.0685 -0.156,0.1129 -0.2979,0.1335l0.3211 0.8163c0.0438,0.1083 0.1032,0.196 0.1779,0.263l-0.8277 0 -0.4256 -1.0908 -0.5416 0 0 0.7581zm0 -1.0754l0.8472 0c0.0464,0 0.0793,-0.0122 0.0987,-0.0367 0.0193,-0.0246 0.0289,-0.0678 0.0289,-0.1296l0 -0.4178c0,-0.1108 -0.0425,-0.1663 -0.1276,-0.1663l-0.8472 0 0 0.7504zm4.294 0.9052c0,0.3353 -0.1651,0.5029 -0.4952,0.5029l-1.6866 0 -0.0619 -0.3907c0.049,0.0264 0.1089,0.0451 0.1799,0.056 0.0709,0.0117 0.1386,0.0175 0.203,0.0175l1.0174 0c0.0517,0 0.0877,-0.0103 0.1083,-0.0309 0.0207,-0.0207 0.031,-0.0594 0.031,-0.1161l0 -0.325c0,-0.0593 -0.0097,-0.0985 -0.029,-0.118 -0.0194,-0.0193 -0.0561,-0.0289 -0.1103,-0.0289l-0.9245 0c-0.33,0 -0.4952,-0.1677 -0.4952,-0.5029l0 -0.5339c0,-0.3352 0.1652,-0.5029 0.4952,-0.5029l1.6904 0 0.062 0.3366c-0.049,-0.0071 -0.109,-0.0117 -0.1799,-0.0148 -0.0709,-0.0032 -0.1386,-0.0045 -0.2031,-0.0045l-1.0212 0c-0.0516,0 -0.0878,0.0103 -0.1084,0.0309 -0.0206,0.0206 -0.0309,0.0593 -0.0309,0.116l0 0.2399c0,0.0594 0.0097,0.0986 0.0291,0.118 0.0193,0.0193 0.056,0.029 0.1102,0.029l0.9245 0c0.3301,0 0.4952,0.1676 0.4952,0.5028l0 0.619z"/>
  <path class="fil14" d="M46.3436 20.1165c0,-0.0645 -0.0032,-0.1218 -0.0097,-0.1721 -0.0065,-0.0503 -0.0186,-0.1039 -0.0367,-0.1606l2.0038 0c0.3301,0 0.4951,0.1677 0.4951,0.5029l0 1.47c0,0.3352 -0.165,0.5029 -0.4951,0.5029l-2.0038 0c0.0181,-0.0567 0.0302,-0.109 0.0367,-0.1567 0.0065,-0.0477 0.0097,-0.1064 0.0097,-0.176l0 -1.8104zm0.7272 1.8259l0.8588 0c0.0516,0 0.0877,-0.0103 0.1083,-0.0309 0.0206,-0.0207 0.031,-0.0594 0.031,-0.1161l0 -1.5474c0,-0.0592 -0.0097,-0.0986 -0.029,-0.118 -0.0194,-0.0193 -0.0561,-0.0289 -0.1103,-0.0289l-0.8588 0 0 1.8413zm2.9478 -2.1586c-0.0181,0.0567 -0.0304,0.109 -0.0368,0.1567 -0.0064,0.0477 -0.0097,0.1064 -0.0097,0.176l0 1.8104c0,0.0645 0.0033,0.1218 0.0097,0.1722 0.0064,0.0503 0.0187,0.1038 0.0368,0.1605l-0.8201 0c0.018,-0.0567 0.0303,-0.109 0.0368,-0.1567 0.0064,-0.0477 0.0096,-0.1064 0.0096,-0.176l0 -1.8104c0,-0.0645 -0.0032,-0.1218 -0.0096,-0.1721 -0.0065,-0.0503 -0.0188,-0.1039 -0.0368,-0.1606l0.8201 0zm0.9014 2.4758c-0.3302,0 -0.4952,-0.1677 -0.4952,-0.5029l0 -1.47c0,-0.3352 0.165,-0.5029 0.4952,-0.5029l1.8181 0 0.0619 0.3366c-0.049,-0.0071 -0.109,-0.0117 -0.1799,-0.0148 -0.0709,-0.0032 -0.1386,-0.0045 -0.2031,-0.0045l-1.1256 0c-0.0517,0 -0.0877,0.0103 -0.1084,0.0309 -0.0206,0.0206 -0.031,0.0593 -0.031,0.116l0 1.5474c0,0.0594 0.0098,0.0986 0.0291,0.118 0.0193,0.0193 0.0561,0.029 0.1103,0.029l0.7698 0c0.0747,0 0.1121,-0.0348 0.1121,-0.1044l0 -0.7389 -0.6383 0c-0.036,0 -0.0651,0.0032 -0.087,0.0097 -0.022,0.0065 -0.0535,0.0174 -0.0948,0.0329l0 -0.3598 1.5706 0c-0.0181,0.0567 -0.0304,0.1089 -0.0367,0.1567 -0.0065,0.0477 -0.0098,0.1064 -0.0098,0.176l0 0.8123c0,0.0645 0.0033,0.1218 0.0098,0.1722 0.0063,0.0503 0.0186,0.1038 0.0367,0.1605l-0.6538 0 -0.0387 -0.2167c-0.0181,0.0826 -0.049,0.1393 -0.0928,0.1703 -0.0438,0.0309 -0.1199,0.0464 -0.2282,0.0464l-0.9903 0zm3.1798 -2.4758c-0.018,0.0567 -0.0303,0.109 -0.0368,0.1567 -0.0064,0.0477 -0.0096,0.1064 -0.0096,0.176l0 1.8104c0,0.0645 0.0032,0.1218 0.0096,0.1722 0.0065,0.0503 0.0188,0.1038 0.0368,0.1605l-0.8201 0c0.018,-0.0567 0.0303,-0.109 0.0368,-0.1567 0.0064,-0.0477 0.0096,-0.1064 0.0096,-0.176l0 -1.8104c0,-0.0645 -0.0032,-0.1218 -0.0096,-0.1721 -0.0065,-0.0503 -0.0188,-0.1039 -0.0368,-0.1606l0.8201 0zm2.4449 0l0.0618 0.3366c-0.049,-0.0071 -0.1088,-0.0117 -0.1798,-0.0148 -0.0709,-0.0032 -0.1386,-0.0045 -0.2031,-0.0045l-0.3791 0 0 1.8258c0,0.0645 0.0032,0.1218 0.0097,0.1722 0.0064,0.0503 0.0187,0.1038 0.0367,0.1605l-0.8201 0c0.018,-0.0567 0.0303,-0.109 0.0368,-0.1567 0.0064,-0.0477 0.0096,-0.1064 0.0096,-0.176l0 -1.8258 -0.3791 0c-0.0774,0 -0.1463,0.0031 -0.2069,0.0096 -0.0606,0.0065 -0.1193,0.0226 -0.1761,0.0484l0.062 -0.3753 2.1276 0zm0.735 1.7717l-0.158 0.3714c-0.0206,0.049 -0.0374,0.1019 -0.049,0.1586 -0.0116,0.0568 -0.0173,0.1148 -0.0173,0.1741l-0.4759 0c0.0438,-0.0618 0.087,-0.1303 0.1296,-0.205 0.0425,-0.0748 0.087,-0.1651 0.1334,-0.2708l0.8241 -1.8375 -0.1045 -0.1625 0.8085 0 0.9129 2.0077c0.0567,0.1238 0.1051,0.2243 0.1451,0.3018 0.0399,0.0774 0.0793,0.1328 0.118,0.1663l-0.913 0c0.0052,-0.0206 0.0078,-0.04 0.0078,-0.058 0,-0.0387 -0.0078,-0.0858 -0.0232,-0.1412 -0.0155,-0.0554 -0.0426,-0.1257 -0.0813,-0.2108l-0.1315 -0.2941 -1.1257 0zm0.9825 -0.3171l-0.4216 -0.9362 -0.4158 0.9362 0.8374 0zm2.1625 -1.4546c-0.0181,0.0567 -0.0304,0.109 -0.0367,0.1567 -0.0065,0.0477 -0.0098,0.1064 -0.0098,0.176l0 1.8259 0.9363 0c0.0773,0 0.1462,-0.0032 0.2069,-0.0097 0.0606,-0.0064 0.1193,-0.0226 0.176,-0.0483l-0.0619 0.3752 -2.0309 0c0.018,-0.0567 0.0303,-0.109 0.0367,-0.1567 0.0065,-0.0477 0.0097,-0.1064 0.0097,-0.176l0 -1.8104c0,-0.0645 -0.0032,-0.1218 -0.0097,-0.1721 -0.0064,-0.0503 -0.0187,-0.1039 -0.0367,-0.1606l0.8201 0zm4.6066 1.7963l0.7201 -1.7963 0.9246 0c-0.0181,0.0567 -0.0304,0.109 -0.0367,0.1567 -0.0065,0.0477 -0.0098,0.1064 -0.0098,0.176l0 1.8091c0,0.0651 0.0033,0.1225 0.0098,0.1728 0.0063,0.0503 0.0186,0.1045 0.0367,0.1612l-0.797 0c0.0181,-0.0567 0.0304,-0.1096 0.0369,-0.1573 0.0063,-0.0477 0.0096,-0.1064 0.0096,-0.1767l0 -1.7858 -0.8549 2.1198 -0.5029 0 -0.8317 -2.1392 -0.0077 1.8033c0,0.0652 0.0032,0.1232 0.0096,0.1741 0.0065,0.0503 0.0188,0.1045 0.0368,0.1618l-0.4255 0c0.018,-0.0567 0.0303,-0.1096 0.0367,-0.1573 0.0065,-0.0477 0.0097,-0.1064 0.0097,-0.1767l0 -1.8091c0,-0.0645 -0.0032,-0.1218 -0.0097,-0.1721 -0.0064,-0.0503 -0.0187,-0.1039 -0.0367,-0.1606l0.9742 0 0.7079 1.7963zm2.4725 0.6795c-0.3302,0 -0.4952,-0.1677 -0.4952,-0.5029l0 -1.47c0,-0.3352 0.165,-0.5029 0.4952,-0.5029l1.4622 0c0.3301,0 0.4951,0.1677 0.4951,0.5029l0 1.47c0,0.3352 -0.165,0.5029 -0.4951,0.5029l-1.4622 0zm1.0908 -0.3172c0.0517,0 0.0878,-0.0103 0.1084,-0.0309 0.0206,-0.0207 0.0309,-0.0594 0.0309,-0.1161l0 -1.5474c0,-0.0592 -0.0097,-0.0986 -0.029,-0.118 -0.0194,-0.0193 -0.0561,-0.0289 -0.1103,-0.0289l-0.7194 0c-0.0517,0 -0.0877,0.0103 -0.1084,0.0309 -0.0206,0.0206 -0.031,0.0593 -0.031,0.116l0 1.5474c0,0.0594 0.0098,0.0986 0.0291,0.118 0.0193,0.0193 0.0561,0.029 0.1103,0.029l0.7194 0zm2.855 0.3172l-1.2689 -2.0038 -0.0077 1.6711c0,0.0645 0.0032,0.1218 0.0096,0.1722 0.0065,0.0503 0.0188,0.1038 0.0368,0.1605l-0.4255 0c0.018,-0.0567 0.0303,-0.109 0.0368,-0.1567 0.0064,-0.0477 0.0096,-0.1064 0.0096,-0.176l0 -1.8104c0,-0.0645 -0.0032,-0.1218 -0.0096,-0.1721 -0.0065,-0.0503 -0.0188,-0.1039 -0.0368,-0.1606l0.9091 0 1.2456 1.9651 0.0077 -1.6324c0,-0.0645 -0.0032,-0.1218 -0.0096,-0.1721 -0.0065,-0.0503 -0.0188,-0.1039 -0.0368,-0.1606l0.4255 0c-0.018,0.0567 -0.0303,0.109 -0.0368,0.1567 -0.0064,0.0477 -0.0096,0.1064 -0.0096,0.176l0 2.1431 -0.8394 0zm3.4699 -0.5029c0,0.3352 -0.165,0.5029 -0.4952,0.5029l-1.6866 0 -0.0618 -0.3907c0.049,0.0264 0.1088,0.0451 0.1798,0.056 0.0709,0.0117 0.1386,0.0175 0.2031,0.0175l1.0173 0c0.0517,0 0.0878,-0.0103 0.1084,-0.0309 0.0206,-0.0207 0.0309,-0.0594 0.0309,-0.1161l0 -0.325c0,-0.0593 -0.0096,-0.0986 -0.0289,-0.118 -0.0195,-0.0193 -0.0562,-0.0289 -0.1104,-0.0289l-0.9245 0c-0.33,0 -0.4952,-0.1677 -0.4952,-0.5029l0 -0.5339c0,-0.3352 0.1652,-0.5029 0.4952,-0.5029l1.6905 0 0.0619 0.3366c-0.049,-0.0071 -0.109,-0.0117 -0.1799,-0.0148 -0.0708,-0.0032 -0.1386,-0.0045 -0.2031,-0.0045l-1.0212 0c-0.0515,0 -0.0877,0.0103 -0.1083,0.0309 -0.0207,0.0206 -0.031,0.0593 -0.031,0.116l0 0.2399c0,0.0593 0.0097,0.0986 0.0291,0.118 0.0193,0.0193 0.056,0.029 0.1102,0.029l0.9245 0c0.3302,0 0.4952,0.1676 0.4952,0.5028l0 0.619zm2.3674 -1.9729l0.0619 0.3366c-0.049,-0.0071 -0.1089,-0.0117 -0.1799,-0.0148 -0.0709,-0.0032 -0.1386,-0.0045 -0.203,-0.0045l-0.3792 0 0 1.8258c0,0.0645 0.0033,0.1218 0.0097,0.1722 0.0064,0.0503 0.0187,0.1038 0.0368,0.1605l-0.8201 0c0.018,-0.0567 0.0302,-0.109 0.0367,-0.1567 0.0065,-0.0477 0.0097,-0.1064 0.0097,-0.176l0 -1.8258 -0.3791 0c-0.0774,0 -0.1464,0.0031 -0.2069,0.0096 -0.0607,0.0065 -0.1193,0.0226 -0.1761,0.0484l0.0619 -0.3753 2.1276 0zm0.1935 2.4758c0.0179,-0.0567 0.0302,-0.109 0.0367,-0.1567 0.0065,-0.0477 0.0096,-0.1064 0.0096,-0.176l0 -1.8104c0,-0.0645 -0.0031,-0.1218 -0.0096,-0.1721 -0.0065,-0.0503 -0.0188,-0.1039 -0.0367,-0.1606l2.0309 0 0.0618 0.3366c-0.049,-0.0071 -0.1089,-0.0117 -0.1798,-0.0148 -0.071,-0.0032 -0.1386,-0.0045 -0.2031,-0.0045l-0.9362 0 0 0.7504 0.8162 0c0.0775,0 0.1464,-0.0033 0.207,-0.0096 0.0606,-0.0065 0.1193,-0.0226 0.1761,-0.0484l0 0.4333c-0.049,-0.0206 -0.109,-0.0356 -0.18,-0.0445 -0.0709,-0.009 -0.1386,-0.0135 -0.2031,-0.0135l-0.8162 0 0 0.7736 0.9362 0c0.0773,0 0.1463,-0.0032 0.2069,-0.0097 0.0607,-0.0064 0.1193,-0.0226 0.176,-0.0483l-0.0618 0.3752 -2.0309 0zm3.1063 -0.3327c0,0.0645 0.0032,0.1218 0.0096,0.1722 0.0065,0.0503 0.0188,0.1038 0.0368,0.1605l-0.8201 0c0.018,-0.0567 0.0303,-0.109 0.0368,-0.1567 0.0064,-0.0477 0.0096,-0.1064 0.0096,-0.176l0 -1.8104c0,-0.0645 -0.0032,-0.1218 -0.0096,-0.1721 -0.0065,-0.0503 -0.0188,-0.1039 -0.0368,-0.1606l1.9613 0c0.1573,0 0.2785,0.0401 0.3636,0.12 0.0851,0.0799 0.1277,0.1998 0.1277,0.3598l0 0.5028c0,0.1187 -0.0284,0.2121 -0.0851,0.2804 -0.0568,0.0685 -0.1561,0.1129 -0.298,0.1335l0.3211 0.8162c0.0439,0.1084 0.1032,0.1961 0.178,0.2631l-0.8278 0 -0.4256 -1.0908 -0.5415 0 0 0.7581zm0 -1.0754l0.8471 0c0.0464,0 0.0793,-0.0122 0.0987,-0.0367 0.0193,-0.0246 0.029,-0.0678 0.029,-0.1296l0 -0.4178c0,-0.1109 -0.0426,-0.1663 -0.1277,-0.1663l-0.8471 0 0 0.7504zm4.2939 0.9052c0,0.3352 -0.165,0.5029 -0.4952,0.5029l-1.6866 0 -0.0618 -0.3907c0.049,0.0264 0.1089,0.0451 0.1798,0.056 0.071,0.0117 0.1386,0.0175 0.2031,0.0175l1.0174 0c0.0516,0 0.0877,-0.0103 0.1083,-0.0309 0.0206,-0.0207 0.0309,-0.0594 0.0309,-0.1161l0 -0.325c0,-0.0593 -0.0096,-0.0986 -0.0289,-0.118 -0.0194,-0.0193 -0.0562,-0.0289 -0.1103,-0.0289l-0.9245 0c-0.3301,0 -0.4952,-0.1677 -0.4952,-0.5029l0 -0.5339c0,-0.3352 0.1651,-0.5029 0.4952,-0.5029l1.6904 0 0.062 0.3366c-0.0491,-0.0071 -0.109,-0.0117 -0.18,-0.0148 -0.0708,-0.0032 -0.1386,-0.0045 -0.2031,-0.0045l-1.0212 0c-0.0515,0 -0.0877,0.0103 -0.1083,0.0309 -0.0206,0.0206 -0.0309,0.0593 -0.0309,0.116l0 0.2399c0,0.0593 0.0096,0.0986 0.029,0.118 0.0193,0.0193 0.056,0.029 0.1102,0.029l0.9245 0c0.3302,0 0.4952,0.1676 0.4952,0.5028l0 0.619z"/>
 </g>
</svg>
